<?xml version="1.0" encoding="UTF-8" standalone="no"?>
<svg
   xmlns:dc="http://purl.org/dc/elements/1.1/"
   xmlns:cc="http://creativecommons.org/ns#"
   xmlns:rdf="http://www.w3.org/1999/02/22-rdf-syntax-ns#"
   xmlns:svg="http://www.w3.org/2000/svg"
   xmlns="http://www.w3.org/2000/svg"
   viewBox="0 0 123.75 82.5"
   height="82.5"
   width="123.75"
   xml:space="preserve"
   version="1.1"
   id="svg2"><metadata
     id="metadata8"><rdf:RDF><cc:Work
         rdf:about=""><dc:format>image/svg+xml</dc:format><dc:type
           rdf:resource="http://purl.org/dc/dcmitype/StillImage" /></cc:Work></rdf:RDF></metadata><defs
     id="defs6" /><g
     transform="matrix(1.25,0,0,-1.25,0,82.5)"
     id="g10"><g
       id="g12"><path
         id="path14"
         style="fill:#000000;fill-opacity:1;fill-rule:evenodd;stroke:none"
         d="m 6.059,25.906 0,-0.535 18.195,0 1.465,-0.047 1.347,-0.144 1.223,-0.246 1.106,-0.313 1.011,-0.391 0.914,-0.484 0.817,-0.535 0.718,-0.609 0.653,-0.633 0.551,-0.703 0.457,-0.754 0.41,-0.778 0.336,-0.824 0.289,-0.851 0.215,-0.852 0.168,-0.898 0.121,-0.875 0.07,-0.899 0.051,-0.898 0,-0.875 L 36.148,11.887 36.102,11.035 36.055,10.211 35.957,9.434 35.887,8.68 35.789,7.949 35.719,7.293 35.621,6.688 35.551,6.129 35.5,5.641 35.477,5.23 35.453,4.891 l 3.125,0 0.383,1.625 0.387,1.652 0.382,1.652 0.387,1.653 0.383,1.652 0.387,1.676 0.383,1.679 0.386,1.676 0.766,3.352 0.387,1.68 0.382,1.675 0.387,1.699 0.383,1.676 0.363,1.703 0.383,1.676 0.383,1.699 0.387,1.68 0.382,1.699 0.387,1.676 0.359,1.703 0.387,1.676 0.766,3.352 0.387,1.675 0.382,1.68 0.387,1.652 0.383,1.676 0.387,1.653 0.382,1.652 0.387,1.629 0.406,1.652 -0.144,-1.242 -0.094,-1.262 -0.098,-1.289 -0.046,-1.285 -0.024,-1.313 0.024,-1.312 0.046,-1.336 0.098,-1.312 0.145,-1.313 0.168,-1.312 0.214,-1.29 0.29,-1.285 0.312,-1.265 0.383,-1.215 0.433,-1.192 0.504,-1.164 0.555,-1.144 0.625,-1.094 0.695,-1.019 0.746,-0.997 0.84,-0.921 0.891,-0.875 0.984,-0.829 1.059,-0.726 1.129,-0.68 1.226,-0.586 1.325,-0.535 1.39,-0.41 1.492,-0.34 1.586,-0.269 1.66,-0.145 1.778,-0.051 26.969,0 0,0.489 -27.09,0 -0.891,0.023 -0.91,0.051 -0.914,0.07 -0.938,0.098 -0.914,0.172 -0.937,0.191 -0.938,0.27 -0.914,0.316 -0.914,0.363 -0.91,0.438 -0.891,0.511 -0.839,0.583 -0.844,0.679 -0.817,0.754 -0.769,0.852 -0.746,0.922 -0.696,1.043 -0.671,1.144 -0.602,1.238 -0.555,1.36 -0.504,1.484 -0.457,1.602 -0.382,1.726 -0.313,1.871 -0.266,1.992 -0.168,2.137 -0.097,2.285 0,2.43 0.051,2.602 0.168,2.746 0.238,2.914 0.363,3.086 -3.582,0 -0.363,-1.532 -0.36,-1.531 L 48.266,61.188 47.902,59.609 47.52,58.055 47.16,56.449 46.773,54.871 46.391,53.266 46.027,51.664 45.262,48.406 44.898,46.777 44.516,45.152 44.129,43.523 43.746,41.895 43.387,40.242 43,38.613 42.617,36.988 42.23,35.336 l -0.359,-1.629 -0.387,-1.629 -0.382,-1.629 -0.36,-1.601 -0.387,-1.606 -0.382,-1.601 -0.36,-1.606 -0.386,-1.578 -0.36,-1.578 -0.387,-1.559 -0.718,-3.109 -0.387,-1.504 -0.023,0.047 -0.024,0.121 0,0.172 -0.023,0.219 -0.024,0.289 -0.027,0.293 -0.024,0.363 -0.046,0.391 -0.071,0.414 -0.074,0.437 -0.094,0.461 -0.144,0.484 -0.145,0.489 -0.195,0.508 -0.215,0.511 -0.238,0.535 -0.313,0.508 -0.34,0.512 -0.382,0.512 -0.434,0.484 -0.48,0.461 -0.551,0.461 -0.602,0.437 -0.676,0.391 -0.742,0.363 -0.793,0.34 -0.89,0.293 -0.938,0.242 -1.035,0.196 -1.105,0.144 -1.2,0.098 -1.273,0.023" /><path
         id="path16"
         style="fill:#000000;fill-opacity:1;fill-rule:evenodd;stroke:none"
         d="m 44.707,51.664 0.023,-0.023 0.024,-0.028 0,-0.168 -0.024,-0.027 0,-0.023 -0.07,-0.071 -0.023,0 -0.075,-0.074 -0.023,0 -0.023,-0.023 -0.024,-0.028 -0.027,0 -0.024,-0.023 -0.046,-0.024 -0.024,0 -0.023,-0.023 -0.024,0 -0.027,-0.024 -0.024,0 -0.023,-0.027 -0.023,0 -0.024,-0.023 -0.074,-0.024 -0.07,-0.023 -0.075,-0.028 -0.046,-0.023 -0.071,-0.023 -0.074,-0.024 -0.07,-0.023 -0.075,-0.028 -0.046,-0.047 -0.071,-0.023 -0.074,-0.027 -0.07,-0.024 -0.075,-0.023 -0.07,0 -0.051,-0.024 -0.07,-0.027 -0.074,-0.023 -0.141,-0.047 -0.074,-0.024 -0.047,-0.027 -0.074,0 -0.07,-0.023 -0.075,-0.024 -0.07,-0.023 -0.07,0 -0.074,-0.028 -0.071,-0.023 -0.074,0 -0.07,-0.024 -0.075,0 -0.07,-0.023 -0.336,-0.051 -0.508,-0.023 -0.671,-0.047 -0.84,-0.074 -0.985,-0.047 -1.109,-0.098 -1.246,-0.097 -1.348,-0.145 -1.441,-0.172 -1.539,-0.195 -1.586,-0.266 -1.66,-0.293 -1.68,-0.34 -1.734,-0.386 -1.731,-0.465 -1.73,-0.531 -1.731,-0.61 -1.73,-0.656 L 16.73,45.125 15.094,44.277 13.559,43.352 12.066,42.332 10.672,41.215 9.375,40 8.195,38.664 7.141,37.23 6.227,35.676 5.48,33.973 4.879,32.176 4.473,30.23 4.254,28.164 4.254,25.93 4.277,25.176 4.375,24.375 4.52,23.551 4.734,22.699 5.047,21.824 5.41,20.926 5.84,20 6.348,19.055 6.945,18.105 7.598,17.16 8.34,16.211 l 0.82,-0.949 0.91,-0.946 0.989,-0.949 1.054,-0.922 1.157,-0.898 1.25,-0.899 1.32,-0.851 1.418,-0.852 1.492,-0.8 L 20.359,7.391 22.043,6.66 23.82,5.98 25.719,5.352 27.691,4.766 29.758,4.23 31.945,3.77 34.227,3.355 36.609,3.016 39.082,2.75 41.68,2.555 l 2.691,-0.121 2.934,0.023 2.785,0.098 2.695,0.195 2.524,0.293 2.425,0.363 2.309,0.438 2.164,0.511 2.066,0.583 1.946,0.632 1.828,0.703 1.73,0.754 1.61,0.801 1.515,0.828 1.395,0.871 1.32,0.926 1.203,0.922 1.106,0.973 1.008,0.972 0.937,0.973 0.82,0.996 0.766,0.996 0.652,0.996 0.598,0.973 0.508,0.969 0.406,0.972 0.359,0.926 0.29,0.899 0.218,0.875 0.145,0.824 0.07,0.801 0.024,0.753 -0.047,0.68 0,0.391 -0.024,0.461 -0.051,0.535 -0.093,0.582 -0.098,0.633 -0.168,0.679 -0.191,0.731 -0.243,0.777 -0.285,0.801 -0.363,0.852 -0.383,0.847 -0.48,0.903 -0.531,0.921 -0.625,0.922 -0.672,0.926 -0.77,0.945 -0.84,0.926 -0.937,0.945 -1.035,0.926 -1.129,0.899 -1.203,0.898 -1.344,0.875 -1.418,0.852 -1.563,0.824 -1.66,0.777 -1.801,0.731 -1.898,0.703 -2.043,0.633 -2.187,0.605 -2.309,0.535 -2.453,0.461 -2.594,0.414 0.023,0.024 0.024,0.051 0.047,0.046 0.027,0.051 0.024,0.024 0.046,0.023 0.024,0.023 0.051,0.028 0.07,0.07 0.047,0.027 0.051,0.024 0.023,0.023 0.094,0.047 0.074,0.028 0.094,0.046 0.051,0.024 0.07,0 0.051,0.027 0.047,0.024 0.07,0.023 0.051,0.024 0.07,0.023 0.074,0.027 0.07,0.024 0.047,0.023 0.075,0.051 0.07,0.023 0.074,0.024 0.07,0.023 0.047,0 0.075,0.024 0.07,0.027 0.074,0 0.047,0.023 0.07,0.024 0.074,0 0.071,0.023 0.074,0.028 0.047,0 0.074,0.023 0.07,0.024 0.075,0 0.046,0.023 0.071,0 0.074,0.027 0.07,0 0.075,0.024 0.046,0 0.071,0.023 0.144,0 0.075,0.024 0.144,0 0.07,0.023 0.36,0 0.652,-0.047 0.742,-0.074 0.867,-0.098 0.938,-0.144 1.031,-0.195 1.106,-0.219 1.156,-0.266 1.226,-0.316 1.274,-0.34 1.32,-0.391 1.324,-0.461 1.368,-0.484 1.371,-0.535 1.394,-0.582 1.371,-0.656 1.368,-0.68 1.347,-0.754 1.321,-0.828 1.277,-0.848 1.246,-0.926 1.18,-0.996 1.105,-1.043 1.059,-1.117 0.961,-1.191 0.89,-1.239 0.766,-1.312 0.676,-1.387 0.55,-1.457 0.457,-1.531 0.29,-1.606 0.167,-1.675 0.024,-1.774 0,-0.437 L 88.789,24.934 88.691,24.328 88.574,23.672 88.379,22.941 88.141,22.164 87.828,21.34 87.469,20.488 87.012,19.59 86.504,18.641 85.879,17.695 85.184,16.699 84.414,15.703 83.523,14.707 82.516,13.684 81.41,12.664 80.184,11.668 78.863,10.672 77.395,9.699 75.785,8.727 74.055,7.805 72.18,6.93 70.137,6.055 67.973,5.254 65.617,4.5 63.117,3.797 60.449,3.141 57.613,2.582 54.586,2.07 51.363,1.633 47.953,1.293 44.371,1.027 43.121,1 41.75,1.027 40.332,1.074 38.816,1.148 37.23,1.27 35.598,1.438 33.891,1.633 32.16,1.898 30.383,2.191 28.602,2.531 26.777,2.922 24.949,3.359 23.121,3.867 21.32,4.426 19.516,5.035 17.762,5.691 16.008,6.418 14.324,7.223 12.691,8.07 11.105,8.996 9.59,9.992 8.148,11.062 6.801,12.18 5.551,13.395 4.398,14.68 3.363,16.043 2.453,17.477 1.66,19.008 1.035,20.609 0.527,22.312 0.168,24.086 0,25.957 l 0,1.02 0.07,1.043 0.145,1.046 0.219,1.043 0.312,1.047 0.359,1.043 0.457,1.047 0.528,1.043 0.625,1.047 0.723,1.019 0.792,1.02 0.864,0.996 0.988,0.973 1.082,0.972 1.152,0.946 1.274,0.902 1.348,0.898 1.464,0.848 1.563,0.852 1.683,0.8 1.778,0.754 1.898,0.731 1.996,0.68 2.114,0.632 2.238,0.606 2.355,0.535 2.473,0.512 2.598,0.437 2.714,0.387 2.836,0.34 2.957,0.269" /></g></g></svg>