<?xml version="1.0" encoding="UTF-8" standalone="no"?>
<!-- Generated by graphviz version 2.38.0 (20140413.2041)
 -->

<!-- Title: classes_pybots Pages: 1 -->

<svg
   xmlns:dc="http://purl.org/dc/elements/1.1/"
   xmlns:cc="http://creativecommons.org/ns#"
   xmlns:rdf="http://www.w3.org/1999/02/22-rdf-syntax-ns#"
   xmlns:svg="http://www.w3.org/2000/svg"
   xmlns="http://www.w3.org/2000/svg"
   xmlns:sodipodi="http://sodipodi.sourceforge.net/DTD/sodipodi-0.dtd"
   xmlns:inkscape="http://www.inkscape.org/namespaces/inkscape"
   width="370.5pt"
   height="185.19951pt"
   viewBox="0 0 370.13889 185.19951"
   id="svg2"
   version="1.1"
   inkscape:version="0.91 r13725"
   sodipodi:docname="fields-uml.svg">
  <metadata
     id="metadata125">
    <rdf:RDF>
      <cc:Work
         rdf:about="">
        <dc:format>image/svg+xml</dc:format>
        <dc:type
           rdf:resource="http://purl.org/dc/dcmitype/StillImage" />
        <dc:title></dc:title>
      </cc:Work>
    </rdf:RDF>
  </metadata>
  <defs
     id="defs123" />
  <sodipodi:namedview
     pagecolor="#ffffff"
     bordercolor="#666666"
     borderopacity="1"
     objecttolerance="10"
     gridtolerance="10"
     guidetolerance="10"
     inkscape:pageopacity="0"
     inkscape:pageshadow="2"
     inkscape:window-width="1863"
     inkscape:window-height="1176"
     id="namedview121"
     showgrid="false"
     fit-margin-top="0"
     fit-margin-left="0"
     fit-margin-right="0"
     fit-margin-bottom="0"
     inkscape:zoom="1.3452948"
     inkscape:cx="343.17421"
     inkscape:cy="243.17893"
     inkscape:window-x="57"
     inkscape:window-y="24"
     inkscape:window-maximized="1"
     inkscape:current-layer="svg2" />
  <g
     class="node"
     id="node1"
     transform="translate(0.3194458,185.19951)">
    <title
       id="title10">0</title>
    <path
       inkscape:connector-curvature="0"
       id="polygon12"
       d="m 0,-73.5 0,-36 77,0 0,36 -77,0 z"
       style="fill:none;stroke:#000000" />
    <g
       id="text14"
       style="font-size:14px;font-family:Times, serif;text-anchor:middle">
      <path
         inkscape:connector-curvature="0"
         id="path3456"
         style="font-size:14px;font-family:Times, serif;text-anchor:middle"
         d="m 15.944578,-90.320003 c 0,-0.616 -0.252,-1.176 -0.686,-1.582 -0.42,-0.378 -0.798,-0.546 -1.708,-0.77 0.728,-0.182 1.022,-0.322 1.358,-0.616 0.35,-0.308 0.56,-0.826 0.56,-1.4 0,-1.568 -1.246,-2.38 -3.668,-2.38 l -3.9199999,0 0,0.266 c 1.176,0.07 1.344,0.224 1.344,1.26 l 0,6.216 c 0,1.036 -0.182,1.218 -1.344,1.26 l 0,0.266 4.6759999,0 c 1.092,0 2.086,-0.294 2.604,-0.77 0.504,-0.448 0.784,-1.078 0.784,-1.75 z m -1.61,0.014 c 0,0.756 -0.294,1.302 -0.854,1.624 -0.448,0.252 -1.022,0.364 -1.946,0.364 -0.686,0 -0.882,-0.126 -0.882,-0.574 l 0,-3.472 c 1.358,0 2.002,0.07 2.506,0.28 0.798,0.336 1.176,0.896 1.176,1.778 z m -0.294,-4.326 c 0,1.092 -0.742,1.708 -2.058,1.708 l -1.33,0 0,-3.206 c 0,-0.294 0.098,-0.42 0.308,-0.42 l 0.616,0 c 1.61,0 2.464,0.672 2.464,1.918 z" />
      <path
         inkscape:connector-curvature="0"
         id="path3458"
         style="font-size:14px;font-family:Times, serif;text-anchor:middle"
         d="m 20.592141,-87.800003 0,-0.21 c -0.896,-0.056 -1.05,-0.196 -1.05,-0.966 l 0,-8.358 -0.056,-0.028 c -0.728,0.238 -1.26,0.378 -2.226,0.616 l 0,0.224 0.084,0 c 0.154,-0.014 0.322,-0.028 0.434,-0.028 0.448,0 0.588,0.196 0.588,0.854 l 0,6.678 c 0,0.756 -0.196,0.938 -1.078,1.008 l 0,0.21 3.304,0 z" />
      <path
         inkscape:connector-curvature="0"
         id="path3460"
         style="font-size:14px;font-family:Times, serif;text-anchor:middle"
         d="m 27.456953,-91.076003 c 0,-1.834 -1.288,-3.164 -3.08,-3.164 -1.82,0 -3.094,1.344 -3.094,3.276 0,1.89 1.302,3.304 3.066,3.304 1.764,0 3.108,-1.484 3.108,-3.416 z m -1.26,0.49 c 0,1.582 -0.63,2.534 -1.68,2.534 -0.546,0 -1.064,-0.336 -1.358,-0.896 -0.392,-0.728 -0.616,-1.708 -0.616,-2.702 0,-1.33 0.658,-2.198 1.652,-2.198 1.176,0 2.002,1.344 2.002,3.262 z" />
      <path
         inkscape:connector-curvature="0"
         id="path3462"
         style="font-size:14px;font-family:Times, serif;text-anchor:middle"
         d="m 33.644953,-89.858003 -0.196,-0.126 c -0.672,0.98 -1.176,1.316 -1.974,1.316 -1.288,0 -2.17,-1.12 -2.17,-2.73 0,-1.456 0.77,-2.436 1.904,-2.436 0.504,0 0.686,0.154 0.826,0.672 l 0.084,0.308 c 0.112,0.406 0.364,0.644 0.672,0.644 0.364,0 0.658,-0.266 0.658,-0.588 0,-0.784 -0.98,-1.442 -2.156,-1.442 -0.658,0 -1.33,0.252 -1.89,0.714 -0.756,0.63 -1.176,1.596 -1.176,2.758 0,1.806 1.106,3.108 2.66,3.108 0.602,0 1.134,-0.196 1.61,-0.588 0.42,-0.336 0.7,-0.742 1.148,-1.61 z" />
      <path
         inkscape:connector-curvature="0"
         id="path3464"
         style="font-size:14px;font-family:Times, serif;text-anchor:middle"
         d="m 40.880547,-87.800003 0,-0.21 c -0.616,-0.042 -1.05,-0.308 -1.638,-1.022 l -2.142,-2.716 0.406,-0.378 c 0.994,-0.924 1.862,-1.568 2.268,-1.68 0.21,-0.056 0.406,-0.084 0.644,-0.084 l 0.112,0 0,-0.21 -2.856,0 0,0.196 c 0.546,0.014 0.7,0.07 0.7,0.266 0,0.112 -0.126,0.308 -0.322,0.476 l -1.918,1.708 0,-5.88 -0.056,-0.028 -1.75,0.504 -0.42,0.112 0,0.224 c 0.182,-0.014 0.308,-0.028 0.448,-0.028 0.462,0 0.602,0.182 0.602,0.854 l 0,6.748 c 0,0.728 -0.042,0.77 -1.05,0.938 l 0,0.21 3.276,0 0,-0.21 -0.28,-0.014 c -0.56,-0.028 -0.77,-0.224 -0.77,-0.714 l 0,-2.576 1.96,2.618 0.042,0.056 c 0.028,0.042 0.056,0.084 0.098,0.126 0.112,0.14 0.154,0.224 0.154,0.294 0,0.126 -0.126,0.21 -0.294,0.21 l -0.266,0 0,0.21 3.052,0 z" />
      <path
         inkscape:connector-curvature="0"
         id="path3466"
         style="font-size:14px;font-family:Times, serif;text-anchor:middle"
         d="m 48.454547,-95.066003 -0.042,-2.002 -7.434,0 0,0.266 c 1.036,0.084 1.218,0.28 1.218,1.26 l 0,6.062 c 0,1.162 -0.154,1.344 -1.218,1.414 l 0,0.266 3.92,0 0,-0.266 c -1.078,-0.056 -1.274,-0.252 -1.274,-1.26 l 0,-3.052 2.03,0 c 1.134,0 1.372,0.21 1.54,1.344 l 0.322,0 0,-3.248 -0.322,0 c -0.168,1.12 -0.42,1.33 -1.54,1.33 l -2.03,0 0,-3.108 c 0,-0.392 0.07,-0.476 0.448,-0.476 l 1.904,0 c 1.582,0 1.89,0.21 2.128,1.47 l 0.35,0 z" />
      <path
         inkscape:connector-curvature="0"
         id="path3468"
         style="font-size:14px;font-family:Times, serif;text-anchor:middle"
         d="m 51.926766,-87.800003 0,-0.21 c -0.924,-0.07 -1.036,-0.21 -1.036,-1.218 l 0,-4.97 -0.056,-0.042 -2.17,0.77 0,0.21 0.112,-0.014 c 0.168,-0.028 0.35,-0.042 0.476,-0.042 0.336,0 0.462,0.224 0.462,0.84 l 0,3.248 c 0,1.008 -0.14,1.162 -1.106,1.218 l 0,0.21 3.318,0 z m -0.91,-8.26 c 0,-0.392 -0.308,-0.714 -0.714,-0.714 -0.392,0 -0.714,0.322 -0.714,0.714 0,0.406 0.322,0.714 0.714,0.714 0.406,0 0.714,-0.308 0.714,-0.714 z" />
      <path
         inkscape:connector-curvature="0"
         id="path3470"
         style="font-size:14px;font-family:Times, serif;text-anchor:middle"
         d="m 58.203578,-89.998003 -0.224,-0.098 c -0.672,1.064 -1.274,1.47 -2.17,1.47 -0.77,0 -1.358,-0.364 -1.764,-1.12 -0.28,-0.546 -0.392,-1.036 -0.42,-1.932 l 4.312,0 c -0.112,-0.91 -0.252,-1.316 -0.602,-1.764 -0.42,-0.504 -1.064,-0.798 -1.792,-0.798 -1.736,0 -2.926,1.4 -2.926,3.444 0,1.932 1.008,3.136 2.618,3.136 1.344,0 2.38,-0.826 2.968,-2.338 z m -1.694,-2.128 -2.856,0 c 0.154,-1.106 0.63,-1.61 1.484,-1.61 0.854,0 1.19,0.392 1.372,1.61 z" />
      <path
         inkscape:connector-curvature="0"
         id="path3472"
         style="font-size:14px;font-family:Times, serif;text-anchor:middle"
         d="m 62.072609,-87.800003 0,-0.21 c -0.896,-0.056 -1.05,-0.196 -1.05,-0.966 l 0,-8.358 -0.056,-0.028 c -0.728,0.238 -1.26,0.378 -2.226,0.616 l 0,0.224 0.084,0 c 0.154,-0.014 0.322,-0.028 0.434,-0.028 0.448,0 0.588,0.196 0.588,0.854 l 0,6.678 c 0,0.756 -0.196,0.938 -1.078,1.008 l 0,0.21 3.304,0 z" />
      <path
         inkscape:connector-curvature="0"
         id="path3474"
         style="font-size:14px;font-family:Times, serif;text-anchor:middle"
         d="m 69.231422,-88.388003 0,-0.224 c -0.252,0.014 -0.28,0.014 -0.322,0.014 -0.504,0 -0.616,-0.154 -0.616,-0.798 l 0,-7.938 -0.07,-0.028 c -0.672,0.238 -1.162,0.378 -2.058,0.616 l 0,0.224 c 0.112,-0.014 0.196,-0.014 0.308,-0.014 0.518,0 0.644,0.14 0.644,0.714 l 0,2.184 c -0.532,-0.448 -0.91,-0.602 -1.47,-0.602 -1.61,0 -2.912,1.582 -2.912,3.57 0,1.792 1.05,3.01 2.59,3.01 0.784,0 1.316,-0.28 1.792,-0.938 l 0,0.896 0.056,0.042 2.058,-0.728 z m -2.114,-0.84 c 0,0.098 -0.098,0.266 -0.238,0.42 -0.252,0.28 -0.602,0.42 -1.008,0.42 -1.162,0 -1.932,-1.12 -1.932,-2.842 0,-1.582 0.686,-2.618 1.75,-2.618 0.742,0 1.428,0.658 1.428,1.4 l 0,3.22 z" />
    </g>
  </g>
  <g
     class="node"
     id="node6"
     transform="translate(0.3194458,183.59951)">
    <title
       id="title17">5</title>
    <path
       inkscape:connector-curvature="0"
       id="polygon19"
       d="m 145.5,-146.5 0,-36 54,0 0,36 -54,0 z"
       style="fill:none;stroke:#000000" />
    <g
       id="text21"
       style="font-size:14px;font-family:Times, serif;text-anchor:middle">
      <path
         inkscape:connector-curvature="0"
         id="path3478"
         style="font-size:14px;font-family:Times, serif;text-anchor:middle"
         d="m 165.87056,-168.066 -0.042,-2.002 -7.434,0 0,0.266 c 1.036,0.084 1.218,0.28 1.218,1.26 l 0,6.062 c 0,1.162 -0.154,1.344 -1.218,1.414 l 0,0.266 3.92,0 0,-0.266 c -1.078,-0.056 -1.274,-0.252 -1.274,-1.26 l 0,-3.052 2.03,0 c 1.134,0 1.372,0.21 1.54,1.344 l 0.322,0 0,-3.248 -0.322,0 c -0.168,1.12 -0.42,1.33 -1.54,1.33 l -2.03,0 0,-3.108 c 0,-0.392 0.07,-0.476 0.448,-0.476 l 1.904,0 c 1.582,0 1.89,0.21 2.128,1.47 l 0.35,0 z" />
      <path
         inkscape:connector-curvature="0"
         id="path3480"
         style="font-size:14px;font-family:Times, serif;text-anchor:middle"
         d="m 169.34278,-160.8 0,-0.21 c -0.924,-0.07 -1.036,-0.21 -1.036,-1.218 l 0,-4.97 -0.056,-0.042 -2.17,0.77 0,0.21 0.112,-0.014 c 0.168,-0.028 0.35,-0.042 0.476,-0.042 0.336,0 0.462,0.224 0.462,0.84 l 0,3.248 c 0,1.008 -0.14,1.162 -1.106,1.218 l 0,0.21 3.318,0 z m -0.91,-8.26 c 0,-0.392 -0.308,-0.714 -0.714,-0.714 -0.392,0 -0.714,0.322 -0.714,0.714 0,0.406 0.322,0.714 0.714,0.714 0.406,0 0.714,-0.308 0.714,-0.714 z" />
      <path
         inkscape:connector-curvature="0"
         id="path3482"
         style="font-size:14px;font-family:Times, serif;text-anchor:middle"
         d="m 175.61959,-162.998 -0.224,-0.098 c -0.672,1.064 -1.274,1.47 -2.17,1.47 -0.77,0 -1.358,-0.364 -1.764,-1.12 -0.28,-0.546 -0.392,-1.036 -0.42,-1.932 l 4.312,0 c -0.112,-0.91 -0.252,-1.316 -0.602,-1.764 -0.42,-0.504 -1.064,-0.798 -1.792,-0.798 -1.736,0 -2.926,1.4 -2.926,3.444 0,1.932 1.008,3.136 2.618,3.136 1.344,0 2.38,-0.826 2.968,-2.338 z m -1.694,-2.128 -2.856,0 c 0.154,-1.106 0.63,-1.61 1.484,-1.61 0.854,0 1.19,0.392 1.372,1.61 z" />
      <path
         inkscape:connector-curvature="0"
         id="path3484"
         style="font-size:14px;font-family:Times, serif;text-anchor:middle"
         d="m 179.48863,-160.8 0,-0.21 c -0.89601,-0.056 -1.05001,-0.196 -1.05001,-0.966 l 0,-8.358 -0.056,-0.028 c -0.728,0.238 -1.26,0.378 -2.226,0.616 l 0,0.224 0.084,0 c 0.154,-0.014 0.322,-0.028 0.434,-0.028 0.448,0 0.58801,0.196 0.58801,0.854 l 0,6.678 c 0,0.756 -0.19601,0.938 -1.07801,1.008 l 0,0.21 3.30401,0 z" />
      <path
         inkscape:connector-curvature="0"
         id="path3486"
         style="font-size:14px;font-family:Times, serif;text-anchor:middle"
         d="m 186.64744,-161.388 0,-0.224 c -0.252,0.014 -0.28,0.014 -0.322,0.014 -0.504,0 -0.616,-0.154 -0.616,-0.798 l 0,-7.938 -0.07,-0.028 c -0.672,0.238 -1.162,0.378 -2.058,0.616 l 0,0.224 c 0.112,-0.014 0.196,-0.014 0.308,-0.014 0.518,0 0.644,0.14 0.644,0.714 l 0,2.184 c -0.532,-0.448 -0.91,-0.602 -1.47,-0.602 -1.61,0 -2.912,1.582 -2.912,3.57 0,1.792 1.05,3.01 2.59,3.01 0.784,0 1.316,-0.28 1.792,-0.938 l 0,0.896 0.056,0.042 2.058,-0.728 z m -2.114,-0.84 c 0,0.098 -0.098,0.266 -0.238,0.42 -0.252,0.28 -0.602,0.42 -1.008,0.42 -1.162,0 -1.932,-1.12 -1.932,-2.842 0,-1.582 0.686,-2.618 1.75,-2.618 0.742,0 1.428,0.658 1.428,1.4 l 0,3.22 z" />
    </g>
  </g>
  <g
     class="edge"
     id="edge1"
     transform="translate(0.3194458,185.19951)">
    <title
       id="title24">0-&gt;5</title>
    <path
       style="fill:none;stroke:#000000"
       inkscape:connector-curvature="0"
       id="path26"
       d="m 70.5963,-109.506 c 19.7403,-10.46 45.0887,-23.891 65.5657,-34.74" />
    <path
       inkscape:connector-curvature="0"
       id="polygon28"
       d="m 134.715,-147.441 10.475,-1.589 -7.198,7.775 -3.277,-6.186 z"
       style="fill:none;stroke:#000000" />
  </g>
  <g
     class="node"
     id="node2"
     transform="translate(0.3194458,185.19951)">
    <title
       id="title31">1</title>
    <path
       inkscape:connector-curvature="0"
       id="polygon33"
       d="m 95.5,-73.5 0,-36 64,0 0,36 -64,0 z"
       style="fill:none;stroke:#000000" />
    <g
       id="text35"
       style="font-size:14px;font-family:Times, serif;text-anchor:middle">
      <path
         inkscape:connector-curvature="0"
         id="path3491"
         style="font-size:14px;font-family:Times, serif;text-anchor:middle"
         d="m 111.41137,-90.320003 c 0,-0.616 -0.252,-1.176 -0.68599,-1.582 -0.42001,-0.378 -0.79801,-0.546 -1.708,-0.77 0.72799,-0.182 1.022,-0.322 1.358,-0.616 0.35,-0.308 0.55999,-0.826 0.55999,-1.4 0,-1.568 -1.246,-2.38 -3.66799,-2.38 l -3.92,0 0,0.266 c 1.176,0.07 1.34399,0.224 1.34399,1.26 l 0,6.216 c 0,1.036 -0.18199,1.218 -1.34399,1.26 l 0,0.266 4.676,0 c 1.092,0 2.086,-0.294 2.604,-0.77 0.504,-0.448 0.78399,-1.078 0.78399,-1.75 z m -1.60999,0.014 c 0,0.756 -0.29401,1.302 -0.85401,1.624 -0.44799,0.252 -1.02199,0.364 -1.946,0.364 -0.68599,0 -0.88199,-0.126 -0.88199,-0.574 l 0,-3.472 c 1.35799,0 2.002,0.07 2.506,0.28 0.79799,0.336 1.176,0.896 1.176,1.778 z m -0.29401,-4.326 c 0,1.092 -0.74199,1.708 -2.05799,1.708 l -1.33,0 0,-3.206 c 0,-0.294 0.098,-0.42 0.30799,-0.42 l 0.616,0 c 1.61,0 2.464,0.672 2.464,1.918 z" />
      <path
         inkscape:connector-curvature="0"
         id="path3493"
         style="font-size:14px;font-family:Times, serif;text-anchor:middle"
         d="m 119.04094,-91.076003 c 0,-1.834 -1.288,-3.164 -3.08,-3.164 -1.82,0 -3.094,1.344 -3.094,3.276 0,1.89 1.302,3.304 3.066,3.304 1.764,0 3.108,-1.484 3.108,-3.416 z m -1.26,0.49 c 0,1.582 -0.63,2.534 -1.68,2.534 -0.546,0 -1.064,-0.336 -1.358,-0.896 -0.392,-0.728 -0.616,-1.708 -0.616,-2.702 0,-1.33 0.658,-2.198 1.652,-2.198 1.176,0 2.002,1.344 2.002,3.262 z" />
      <path
         inkscape:connector-curvature="0"
         id="path3495"
         style="font-size:14px;font-family:Times, serif;text-anchor:middle"
         d="m 123.36694,-88.724003 -0.182,-0.154 c -0.308,0.364 -0.532,0.49 -0.84,0.49 -0.518,0 -0.728,-0.364 -0.728,-1.26 l 0,-4.004 1.414,0 0,-0.448 -1.414,0 0,-1.624 c 0,-0.14 -0.028,-0.182 -0.098,-0.182 -0.084,0.14 -0.182,0.266 -0.28,0.392 -0.518,0.77 -0.994,1.288 -1.358,1.498 -0.154,0.098 -0.238,0.182 -0.238,0.266 0,0.042 0.014,0.07 0.056,0.098 l 0.742,0 0,4.214 c 0,1.176 0.42,1.778 1.232,1.778 0.7,0 1.232,-0.336 1.694,-1.064 z" />
      <path
         inkscape:connector-curvature="0"
         id="path3497"
         style="font-size:14px;font-family:Times, serif;text-anchor:middle"
         d="m 130.98775,-95.066003 -0.042,-2.002 -7.434,0 0,0.266 c 1.036,0.084 1.218,0.28 1.218,1.26 l 0,6.062 c 0,1.162 -0.154,1.344 -1.218,1.414 l 0,0.266 3.92,0 0,-0.266 c -1.078,-0.056 -1.274,-0.252 -1.274,-1.26 l 0,-3.052 2.03,0 c 1.134,0 1.372,0.21 1.54,1.344 l 0.322,0 0,-3.248 -0.322,0 c -0.168,1.12 -0.42,1.33 -1.54,1.33 l -2.03,0 0,-3.108 c 0,-0.392 0.07,-0.476 0.448,-0.476 l 1.904,0 c 1.582,0 1.89,0.21 2.128,1.47 l 0.35,0 z" />
      <path
         inkscape:connector-curvature="0"
         id="path3499"
         style="font-size:14px;font-family:Times, serif;text-anchor:middle"
         d="m 134.45997,-87.800003 0,-0.21 c -0.924,-0.07 -1.036,-0.21 -1.036,-1.218 l 0,-4.97 -0.056,-0.042 -2.17,0.77 0,0.21 0.112,-0.014 c 0.168,-0.028 0.35,-0.042 0.476,-0.042 0.336,0 0.462,0.224 0.462,0.84 l 0,3.248 c 0,1.008 -0.14,1.162 -1.106,1.218 l 0,0.21 3.318,0 z m -0.91,-8.26 c 0,-0.392 -0.308,-0.714 -0.714,-0.714 -0.392,0 -0.714,0.322 -0.714,0.714 0,0.406 0.322,0.714 0.714,0.714 0.406,0 0.714,-0.308 0.714,-0.714 z" />
      <path
         inkscape:connector-curvature="0"
         id="path3501"
         style="font-size:14px;font-family:Times, serif;text-anchor:middle"
         d="m 140.73678,-89.998003 -0.224,-0.098 c -0.672,1.064 -1.274,1.47 -2.17,1.47 -0.77,0 -1.358,-0.364 -1.764,-1.12 -0.28,-0.546 -0.392,-1.036 -0.42,-1.932 l 4.312,0 c -0.112,-0.91 -0.252,-1.316 -0.602,-1.764 -0.42,-0.504 -1.064,-0.798 -1.792,-0.798 -1.736,0 -2.926,1.4 -2.926,3.444 0,1.932 1.008,3.136 2.618,3.136 1.344,0 2.38,-0.826 2.968,-2.338 z m -1.694,-2.128 -2.856,0 c 0.154,-1.106 0.63,-1.61 1.484,-1.61 0.854,0 1.19,0.392 1.372,1.61 z" />
      <path
         inkscape:connector-curvature="0"
         id="path3503"
         style="font-size:14px;font-family:Times, serif;text-anchor:middle"
         d="m 144.60581,-87.800003 0,-0.21 c -0.896,-0.056 -1.05,-0.196 -1.05,-0.966 l 0,-8.358 -0.056,-0.028 c -0.728,0.238 -1.26,0.378 -2.226,0.616 l 0,0.224 0.084,0 c 0.154,-0.014 0.322,-0.028 0.434,-0.028 0.448,0 0.588,0.196 0.588,0.854 l 0,6.678 c 0,0.756 -0.196,0.938 -1.078,1.008 l 0,0.21 3.304,0 z" />
      <path
         inkscape:connector-curvature="0"
         id="path3505"
         style="font-size:14px;font-family:Times, serif;text-anchor:middle"
         d="m 151.76462,-88.388003 0,-0.224 c -0.25199,0.014 -0.28,0.014 -0.322,0.014 -0.504,0 -0.616,-0.154 -0.616,-0.798 l 0,-7.938 -0.07,-0.028 c -0.672,0.238 -1.162,0.378 -2.058,0.616 l 0,0.224 c 0.112,-0.014 0.196,-0.014 0.308,-0.014 0.51801,0 0.644,0.14 0.644,0.714 l 0,2.184 c -0.532,-0.448 -0.91,-0.602 -1.47,-0.602 -1.61,0 -2.912,1.582 -2.912,3.57 0,1.792 1.05,3.01 2.59,3.01 0.784,0 1.316,-0.28 1.792,-0.938 l 0,0.896 0.056,0.042 2.058,-0.728 z m -2.114,-0.84 c 0,0.098 -0.098,0.266 -0.238,0.42 -0.252,0.28 -0.602,0.42 -1.008,0.42 -1.162,0 -1.932,-1.12 -1.932,-2.842 0,-1.582 0.686,-2.618 1.75,-2.618 0.742,0 1.428,0.658 1.428,1.4 l 0,3.22 z" />
    </g>
  </g>
  <g
     class="edge"
     id="edge2"
     transform="translate(0.3194458,185.19951)">
    <title
       id="title38">1-&gt;5</title>
    <path
       style="fill:none;stroke:#000000"
       inkscape:connector-curvature="0"
       id="path40"
       d="m 138.393,-109.687 c 5.362,-8.46 11.934,-18.829 17.874,-28.201" />
    <path
       inkscape:connector-curvature="0"
       id="polygon42"
       d="m 153.397,-139.898 8.31,-6.573 -2.397,10.32 -5.913,-3.747 z"
       style="fill:none;stroke:#000000" />
  </g>
  <g
     class="node"
     id="node4"
     transform="translate(0.3194458,185.19951)">
    <title
       id="title66">3</title>
    <path
       inkscape:connector-curvature="0"
       id="polygon68"
       d="m 178,-73.5 0,-36 81,0 0,36 -81,0 z"
       style="fill:none;stroke:#000000" />
    <g
       id="text70"
       style="font-size:14px;font-family:Times, serif;text-anchor:middle">
      <path
         inkscape:connector-curvature="0"
         id="path3581"
         style="font-size:14px;font-family:Times, serif;text-anchor:middle"
         d="m 193.92245,-90.166003 -0.392,0 c -0.7,1.512 -1.302,1.848 -3.304,1.848 l -0.378,0 c -0.672,0 -1.232,-0.056 -1.358,-0.154 -0.084,-0.056 -0.112,-0.182 -0.112,-0.448 l 0,-3.458 2.156,0 c 1.148,0 1.358,0.182 1.54,1.344 l 0.322,0 0,-3.248 -0.322,0 c -0.182,1.148 -0.406,1.33 -1.54,1.33 l -2.156,0 0,-3.108 c 0,-0.392 0.084,-0.476 0.462,-0.476 l 1.89,0 c 1.582,0 1.89,0.21 2.128,1.47 l 0.35,0 -0.042,-2.002 -7.434,0 0,0.266 c 1.036,0.084 1.218,0.266 1.218,1.26 l 0,6.216 c 0,0.994 -0.196,1.19 -1.218,1.26 l 0,0.266 7.56,0 0.63,-2.366 z" />
      <path
         inkscape:connector-curvature="0"
         id="path3583"
         style="font-size:14px;font-family:Times, serif;text-anchor:middle"
         d="m 204.97305,-87.800003 0,-0.21 -0.364,-0.028 c -0.42,-0.028 -0.602,-0.28 -0.602,-0.826 l 0,-2.884 c 0,-1.652 -0.546,-2.492 -1.624,-2.492 -0.812,0 -1.526,0.364 -2.282,1.176 -0.252,-0.798 -0.728,-1.176 -1.484,-1.176 -0.616,0 -1.008,0.196 -2.17,1.078 l 0,-1.05 -0.098,-0.028 c -0.714,0.266 -1.19,0.42 -1.96,0.63 l 0,0.238 c 0.182,-0.042 0.294,-0.056 0.448,-0.056 0.364,0 0.49,0.224 0.49,0.896 l 0,3.542 c 0,0.756 -0.196,0.966 -0.98,0.98 l 0,0.21 3.108,0 0,-0.21 c -0.742,-0.028 -0.952,-0.182 -0.952,-0.728 l 0,-3.948 c 0,0 0.112,-0.168 0.21,-0.266 0.35,-0.322 0.952,-0.56 1.442,-0.56 0.616,0 0.924,0.49 0.924,1.47 l 0,3.038 c 0,0.784 -0.154,0.938 -0.952,0.994 l 0,0.21 3.136,0 0,-0.21 c -0.798,-0.014 -1.008,-0.252 -1.008,-1.12 l 0,-3.528 c 0.42,-0.602 0.882,-0.854 1.526,-0.854 0.798,0 1.05,0.378 1.05,1.54 l 0,2.954 c 0,0.798 -0.112,0.91 -0.924,1.008 l 0,0.21 3.066,0 z" />
      <path
         inkscape:connector-curvature="0"
         id="path3585"
         style="font-size:14px;font-family:Times, serif;text-anchor:middle"
         d="m 211.58586,-91.258003 c 0,-1.736 -0.98,-2.982 -2.338,-2.982 -0.784,0 -1.4,0.35 -2.016,1.106 l 0,-1.078 -0.084,-0.028 c -0.756,0.294 -1.246,0.476 -2.016,0.714 l 0,0.224 c 0.126,-0.014 0.224,-0.014 0.35,-0.014 0.476,0 0.574,0.14 0.574,0.798 l 0,6.552 c 0,0.728 -0.154,0.882 -0.98,0.966 l 0,0.238 3.388,0 0,-0.252 c -1.05,-0.014 -1.232,-0.168 -1.232,-1.05 l 0,-2.198 c 0.49,0.462 0.826,0.602 1.414,0.602 1.652,0 2.94,-1.568 2.94,-3.598 z m -1.204,0.546 c 0,1.554 -0.686,2.604 -1.694,2.604 -0.658,0 -1.456,-0.504 -1.456,-0.924 l 0,-3.444 c 0,-0.42 0.784,-0.924 1.428,-0.924 1.036,0 1.722,1.064 1.722,2.688 z" />
      <path
         inkscape:connector-curvature="0"
         id="path3587"
         style="font-size:14px;font-family:Times, serif;text-anchor:middle"
         d="m 215.91186,-88.724003 -0.182,-0.154 c -0.308,0.364 -0.532,0.49 -0.84,0.49 -0.518,0 -0.728,-0.364 -0.728,-1.26 l 0,-4.004 1.414,0 0,-0.448 -1.414,0 0,-1.624 c 0,-0.14 -0.028,-0.182 -0.098,-0.182 -0.084,0.14 -0.182,0.266 -0.28,0.392 -0.518,0.77 -0.994,1.288 -1.358,1.498 -0.154,0.098 -0.238,0.182 -0.238,0.266 0,0.042 0.014,0.07 0.056,0.098 l 0.742,0 0,4.214 c 0,1.176 0.42,1.778 1.232,1.778 0.7,0 1.232,-0.336 1.694,-1.064 z" />
      <path
         inkscape:connector-curvature="0"
         id="path3589"
         style="font-size:14px;font-family:Times, serif;text-anchor:middle"
         d="m 222.53867,-93.890003 0,-0.21 -1.89,0 0,0.21 c 0.448,0 0.672,0.126 0.672,0.35 0,0.056 -0.014,0.14 -0.056,0.238 l -1.358,3.864 -1.61,-3.542 c -0.084,-0.196 -0.14,-0.378 -0.14,-0.532 0,-0.252 0.21,-0.35 0.812,-0.378 l 0,-0.21 -2.884,0 0,0.196 c 0.364,0.056 0.602,0.21 0.714,0.448 l 2.31,4.872 c 0.098,0.238 0.154,0.406 0.154,0.518 0,0.21 -0.322,1.092 -0.56,1.512 -0.196,0.364 -0.504,0.63 -0.7,0.63 -0.084,0 -0.21,-0.028 -0.35,-0.098 -0.266,-0.098 -0.504,-0.154 -0.742,-0.154 -0.322,0 -0.602,0.28 -0.602,0.616 0,0.462 0.448,0.812 1.036,0.812 0.938,0 1.61,-0.784 2.366,-2.8 l 2.156,-5.712 c 0.182,-0.448 0.336,-0.588 0.672,-0.63 z" />
      <path
         inkscape:connector-curvature="0"
         id="path3591"
         style="font-size:14px;font-family:Times, serif;text-anchor:middle"
         d="m 230.53267,-95.066003 -0.042,-2.002 -7.434,0 0,0.266 c 1.036,0.084 1.218,0.28 1.218,1.26 l 0,6.062 c 0,1.162 -0.154,1.344 -1.218,1.414 l 0,0.266 3.92,0 0,-0.266 c -1.078,-0.056 -1.274,-0.252 -1.274,-1.26 l 0,-3.052 2.03,0 c 1.134,0 1.372,0.21 1.54,1.344 l 0.322,0 0,-3.248 -0.322,0 c -0.168,1.12 -0.42,1.33 -1.54,1.33 l -2.03,0 0,-3.108 c 0,-0.392 0.07,-0.476 0.448,-0.476 l 1.904,0 c 1.582,0 1.89,0.21 2.128,1.47 l 0.35,0 z" />
      <path
         inkscape:connector-curvature="0"
         id="path3593"
         style="font-size:14px;font-family:Times, serif;text-anchor:middle"
         d="m 234.00489,-87.800003 0,-0.21 c -0.924,-0.07 -1.036,-0.21 -1.036,-1.218 l 0,-4.97 -0.056,-0.042 -2.17,0.77 0,0.21 0.112,-0.014 c 0.168,-0.028 0.35,-0.042 0.476,-0.042 0.336,0 0.462,0.224 0.462,0.84 l 0,3.248 c 0,1.008 -0.14,1.162 -1.106,1.218 l 0,0.21 3.318,0 z m -0.91,-8.26 c 0,-0.392 -0.308,-0.714 -0.714,-0.714 -0.392,0 -0.714,0.322 -0.714,0.714 0,0.406 0.322,0.714 0.714,0.714 0.406,0 0.714,-0.308 0.714,-0.714 z" />
      <path
         inkscape:connector-curvature="0"
         id="path3595"
         style="font-size:14px;font-family:Times, serif;text-anchor:middle"
         d="m 240.2817,-89.998003 -0.224,-0.098 c -0.672,1.064 -1.274,1.47 -2.17,1.47 -0.77,0 -1.358,-0.364 -1.764,-1.12 -0.28,-0.546 -0.392,-1.036 -0.42,-1.932 l 4.312,0 c -0.112,-0.91 -0.252,-1.316 -0.602,-1.764 -0.42,-0.504 -1.064,-0.798 -1.792,-0.798 -1.736,0 -2.926,1.4 -2.926,3.444 0,1.932 1.008,3.136 2.618,3.136 1.344,0 2.38,-0.826 2.968,-2.338 z m -1.694,-2.128 -2.856,0 c 0.154,-1.106 0.63,-1.61 1.484,-1.61 0.854,0 1.19,0.392 1.372,1.61 z" />
      <path
         inkscape:connector-curvature="0"
         id="path3597"
         style="font-size:14px;font-family:Times, serif;text-anchor:middle"
         d="m 244.15073,-87.800003 0,-0.21 c -0.896,-0.056 -1.05,-0.196 -1.05,-0.966 l 0,-8.358 -0.056,-0.028 c -0.728,0.238 -1.26,0.378 -2.226,0.616 l 0,0.224 0.084,0 c 0.154,-0.014 0.322,-0.028 0.434,-0.028 0.448,0 0.588,0.196 0.588,0.854 l 0,6.678 c 0,0.756 -0.196,0.938 -1.078,1.008 l 0,0.21 3.304,0 z" />
      <path
         inkscape:connector-curvature="0"
         id="path3599"
         style="font-size:14px;font-family:Times, serif;text-anchor:middle"
         d="m 251.30955,-88.388003 0,-0.224 c -0.252,0.014 -0.28,0.014 -0.322,0.014 -0.504,0 -0.616,-0.154 -0.616,-0.798 l 0,-7.938 -0.07,-0.028 c -0.672,0.238 -1.162,0.378 -2.058,0.616 l 0,0.224 c 0.112,-0.014 0.196,-0.014 0.308,-0.014 0.518,0 0.644,0.14 0.644,0.714 l 0,2.184 c -0.532,-0.448 -0.91,-0.602 -1.47,-0.602 -1.61,0 -2.912,1.582 -2.912,3.57 0,1.792 1.05,3.01 2.59,3.01 0.784,0 1.316,-0.28 1.792,-0.938 l 0,0.896 0.056,0.042 2.058,-0.728 z m -2.114,-0.84 c 0,0.098 -0.098,0.266 -0.238,0.42 -0.252,0.28 -0.602,0.42 -1.008,0.42 -1.162,0 -1.932,-1.12 -1.932,-2.842 0,-1.582 0.686,-2.618 1.75,-2.618 0.742,0 1.428,0.658 1.428,1.4 l 0,3.22 z" />
    </g>
  </g>
  <g
     class="edge"
     id="edge4"
     transform="translate(0.3194458,185.19951)">
    <title
       id="title73">3-&gt;5</title>
    <path
       style="fill:none;stroke:#000000"
       inkscape:connector-curvature="0"
       id="path75"
       d="m 207.365,-109.687 c -5.481,-8.46 -12.2,-18.829 -18.271,-28.201" />
    <path
       inkscape:connector-curvature="0"
       id="polygon77"
       d="m 186.033,-136.176 -2.5,-10.295 8.375,6.489 -5.875,3.806 z"
       style="fill:none;stroke:#000000" />
  </g>
  <g
     class="node"
     id="node5"
     transform="translate(103.93987,256)">
    <title
       id="title80">4</title>
    <path
       inkscape:connector-curvature="0"
       id="polygon82"
       d="m 134.5,-219.5 0,-36 76,0 0,36 -76,0 z"
       style="fill:none;stroke:#000000" />
    <g
       id="text84"
       style="font-size:14px;font-family:Times, serif;text-anchor:middle">
      <path
         inkscape:connector-curvature="0"
         id="path3604"
         style="font-size:14px;font-family:Times, serif;text-anchor:middle"
         d="m 149.97323,-236.166 -0.392,0 c -0.7,1.512 -1.302,1.848 -3.304,1.848 l -0.378,0 c -0.672,0 -1.232,-0.056 -1.358,-0.154 -0.084,-0.056 -0.112,-0.182 -0.112,-0.448 l 0,-3.458 2.156,0 c 1.148,0 1.358,0.182 1.54,1.344 l 0.322,0 0,-3.248 -0.322,0 c -0.182,1.148 -0.406,1.33 -1.54,1.33 l -2.156,0 0,-3.108 c 0,-0.392 0.084,-0.476 0.462,-0.476 l 1.89,0 c 1.582,0 1.89,0.21 2.128,1.47 l 0.35,0 -0.042,-2.002 -7.434,0 0,0.266 c 1.036,0.084 1.218,0.266 1.218,1.26 l 0,6.216 c 0,0.994 -0.196,1.19 -1.218,1.26 l 0,0.266 7.56,0 0.63,-2.366 z" />
      <path
         inkscape:connector-curvature="0"
         id="path3606"
         style="font-size:14px;font-family:Times, serif;text-anchor:middle"
         d="m 156.87983,-233.8 0,-0.21 c -0.434,0 -0.714,-0.224 -1.148,-0.84 l -1.792,-2.744 1.162,-1.68 c 0.266,-0.378 0.686,-0.602 1.134,-0.616 l 0,-0.21 -2.212,0 0,0.21 c 0.42,0.028 0.56,0.112 0.56,0.308 0,0.168 -0.168,0.476 -0.518,0.91 -0.07,0.084 -0.238,0.336 -0.42,0.616 l -0.196,-0.28 c -0.392,-0.588 -0.644,-1.064 -0.644,-1.246 0,-0.196 0.182,-0.294 0.602,-0.308 l 0,-0.21 -2.898,0 0,0.21 0.126,0 c 0.42,0 0.644,0.182 1.078,0.84 l 1.316,2.016 -1.596,2.31 c -0.42,0.574 -0.56,0.672 -1.022,0.714 l 0,0.21 2.03,0 0,-0.21 c -0.392,0 -0.56,-0.07 -0.56,-0.252 0,-0.084 0.098,-0.294 0.28,-0.574 l 1.106,-1.722 1.274,1.96 c 0.056,0.084 0.084,0.168 0.084,0.252 0,0.252 -0.098,0.308 -0.56,0.336 l 0,0.21 2.814,0 z" />
      <path
         inkscape:connector-curvature="0"
         id="path3608"
         style="font-size:14px;font-family:Times, serif;text-anchor:middle"
         d="m 163.75383,-237.258 c 0,-1.736 -0.98,-2.982 -2.338,-2.982 -0.784,0 -1.4,0.35 -2.016,1.106 l 0,-1.078 -0.084,-0.028 c -0.756,0.294 -1.246,0.476 -2.016,0.714 l 0,0.224 c 0.126,-0.014 0.224,-0.014 0.35,-0.014 0.476,0 0.574,0.14 0.574,0.798 l 0,6.552 c 0,0.728 -0.154,0.882 -0.98,0.966 l 0,0.238 3.388,0 0,-0.252 c -1.05,-0.014 -1.232,-0.168 -1.232,-1.05 l 0,-2.198 c 0.49,0.462 0.826,0.602 1.414,0.602 1.652,0 2.94,-1.568 2.94,-3.598 z m -1.204,0.546 c 0,1.554 -0.686,2.604 -1.694,2.604 -0.658,0 -1.456,-0.504 -1.456,-0.924 l 0,-3.444 c 0,-0.42 0.784,-0.924 1.428,-0.924 1.036,0 1.722,1.064 1.722,2.688 z" />
      <path
         inkscape:connector-curvature="0"
         id="path3610"
         style="font-size:14px;font-family:Times, serif;text-anchor:middle"
         d="m 170.75383,-237.076 c 0,-1.834 -1.288,-3.164 -3.08,-3.164 -1.82,0 -3.094,1.344 -3.094,3.276 0,1.89 1.302,3.304 3.066,3.304 1.764,0 3.108,-1.484 3.108,-3.416 z m -1.26,0.49 c 0,1.582 -0.63,2.534 -1.68,2.534 -0.546,0 -1.064,-0.336 -1.358,-0.896 -0.392,-0.728 -0.616,-1.708 -0.616,-2.702 0,-1.33 0.658,-2.198 1.652,-2.198 1.176,0 2.002,1.344 2.002,3.262 z" />
      <path
         inkscape:connector-curvature="0"
         id="path3612"
         style="font-size:14px;font-family:Times, serif;text-anchor:middle"
         d="m 175.86383,-239.498 c 0,-0.462 -0.294,-0.742 -0.77,-0.742 -0.588,0 -0.994,0.322 -1.68,1.316 l 0,-1.288 -0.07,-0.028 c -0.742,0.308 -1.246,0.49 -2.072,0.756 l 0,0.224 c 0.196,-0.042 0.322,-0.056 0.49,-0.056 0.35,0 0.476,0.224 0.476,0.84 l 0,3.5 c 0,0.7 -0.098,0.798 -0.994,0.966 l 0,0.21 3.36,0 0,-0.21 c -0.952,-0.042 -1.19,-0.252 -1.19,-1.05 l 0,-3.15 c 0,-0.448 0.602,-1.148 0.98,-1.148 0.084,0 0.21,0.07 0.364,0.21 0.224,0.196 0.378,0.28 0.56,0.28 0.336,0 0.546,-0.238 0.546,-0.63 z" />
      <path
         inkscape:connector-curvature="0"
         id="path3614"
         style="font-size:14px;font-family:Times, serif;text-anchor:middle"
         d="m 180.11108,-234.724 -0.182,-0.154 c -0.308,0.364 -0.532,0.49 -0.84,0.49 -0.518,0 -0.728,-0.364 -0.728,-1.26 l 0,-4.004 1.414,0 0,-0.448 -1.414,0 0,-1.624 c 0,-0.14 -0.028,-0.182 -0.098,-0.182 -0.084,0.14 -0.182,0.266 -0.28,0.392 -0.518,0.77 -0.994,1.288 -1.358,1.498 -0.154,0.098 -0.238,0.182 -0.238,0.266 0,0.042 0.014,0.07 0.056,0.098 l 0.742,0 0,4.214 c 0,1.176 0.42,1.778 1.232,1.778 0.7,0 1.232,-0.336 1.694,-1.064 z" />
      <path
         inkscape:connector-curvature="0"
         id="path3616"
         style="font-size:14px;font-family:Times, serif;text-anchor:middle"
         d="m 186.27589,-234.36 0,-0.364 c -0.238,0.196 -0.406,0.266 -0.616,0.266 -0.322,0 -0.42,-0.196 -0.42,-0.812 l 0,-2.73 c 0,-0.714 -0.07,-1.106 -0.266,-1.428 -0.294,-0.532 -0.896,-0.812 -1.75,-0.812 -0.714,0 -1.386,0.196 -1.778,0.518 -0.35,0.294 -0.574,0.7 -0.574,1.05 0,0.322 0.266,0.602 0.602,0.602 0.336,0 0.63,-0.28 0.63,-0.588 0,-0.056 -0.014,-0.126 -0.028,-0.224 -0.028,-0.126 -0.042,-0.238 -0.042,-0.336 0,-0.378 0.448,-0.686 1.008,-0.686 0.686,0 1.064,0.406 1.064,1.162 l 0,0.854 c -2.156,0.868 -2.394,0.98 -2.996,1.512 -0.308,0.28 -0.504,0.756 -0.504,1.218 0,0.882 0.602,1.498 1.47,1.498 0.616,0 1.19,-0.294 2.044,-1.022 0.07,0.742 0.322,1.022 0.896,1.022 0.476,0 0.77,-0.168 1.26,-0.7 z m -2.17,-1.162 c 0,0.434 -0.07,0.56 -0.364,0.742 -0.336,0.196 -0.728,0.308 -1.022,0.308 -0.49,0 -0.882,-0.476 -0.882,-1.078 l 0,-0.056 c 0,-0.826 0.574,-1.33 2.268,-1.946 l 0,2.03 z" />
      <path
         inkscape:connector-curvature="0"
         id="path3618"
         style="font-size:14px;font-family:Times, serif;text-anchor:middle"
         d="m 192.84692,-237.202 c 0,-1.722 -1.064,-3.038 -2.464,-3.038 -0.854,0 -1.666,0.504 -1.946,1.19 l 0,-4.284 -0.07,-0.028 c -0.588,0.21 -0.966,0.322 -1.624,0.504 l -0.406,0.112 0,0.224 c 0.084,-0.014 0.14,-0.014 0.238,-0.014 0.56,0 0.686,0.126 0.686,0.714 l 0,7.266 c 0,0.434 1.19,0.896 2.31,0.896 1.848,0 3.276,-1.54 3.276,-3.542 z m -1.232,0.644 c 0,1.554 -0.672,2.45 -1.82,2.45 -0.728,0 -1.358,-0.322 -1.358,-0.672 l 0,-3.528 c 0,-0.546 0.658,-1.05 1.386,-1.05 1.092,0 1.792,1.092 1.792,2.8 z" />
      <path
         inkscape:connector-curvature="0"
         id="path3620"
         style="font-size:14px;font-family:Times, serif;text-anchor:middle"
         d="m 196.89292,-233.8 0,-0.21 c -0.896,-0.056 -1.05,-0.196 -1.05,-0.966 l 0,-8.358 -0.056,-0.028 c -0.728,0.238 -1.26,0.378 -2.226,0.616 l 0,0.224 0.084,0 c 0.154,-0.014 0.322,-0.028 0.434,-0.028 0.448,0 0.588,0.196 0.588,0.854 l 0,6.678 c 0,0.756 -0.196,0.938 -1.078,1.008 l 0,0.21 3.304,0 z" />
      <path
         inkscape:connector-curvature="0"
         id="path3622"
         style="font-size:14px;font-family:Times, serif;text-anchor:middle"
         d="m 203.11373,-235.998 -0.224,-0.098 c -0.672,1.064 -1.274,1.47 -2.17,1.47 -0.77,0 -1.358,-0.364 -1.764,-1.12 -0.28,-0.546 -0.392,-1.036 -0.42,-1.932 l 4.312,0 c -0.112,-0.91 -0.252,-1.316 -0.602,-1.764 -0.42,-0.504 -1.064,-0.798 -1.792,-0.798 -1.736,0 -2.926,1.4 -2.926,3.444 0,1.932 1.008,3.136 2.618,3.136 1.344,0 2.38,-0.826 2.968,-2.338 z m -1.694,-2.128 -2.856,0 c 0.154,-1.106 0.63,-1.61 1.484,-1.61 0.854,0 1.19,0.392 1.372,1.61 z" />
    </g>
  </g>
  <g
     class="edge"
     id="edge5"
     transform="matrix(0,1,-1,0,17.083668,-152.25358)">
    <title
       id="title87">5-&gt;4</title>
    <path
       style="fill:none;stroke:#000000"
       inkscape:connector-curvature="0"
       id="path89"
       d="m 172.5,-182.687 c 0,-8.024 0,-17.766 0,-26.744" />
    <path
       inkscape:connector-curvature="0"
       id="polygon91"
       d="m 169,-209.471 3.5,-10 3.5,10 -7,0 z"
       style="fill:none;stroke:#000000" />
  </g>
  <g
     class="node"
     id="node7"
     transform="translate(0.3194458,185.19951)">
    <title
       id="title94">6</title>
    <path
       inkscape:connector-curvature="0"
       id="polygon96"
       d="m 60.5,-0.5 0,-36 134,0 0,36 -134,0 z"
       style="fill:none;stroke:#000000" />
    <g
       id="text98"
       style="font-size:14px;font-family:Times, serif;text-anchor:middle">
      <path
         inkscape:connector-curvature="0"
         id="path3627"
         style="font-size:14px;font-family:Times, serif;text-anchor:middle"
         d="m 75.196219,-17.236 -0.35,0 c -0.224,0.49 -0.406,0.812 -0.602,1.036 -0.49,0.588 -1.26,0.854 -2.464,0.854 l -0.938,0 c -1.022,0 -1.204,-0.084 -1.204,-0.574 l 0,-6.622 c 0,-0.994 0.196,-1.19 1.302,-1.26 l 0,-0.266 -3.948,0 0,0.266 c 1.036,0.084 1.218,0.266 1.218,1.26 l 0,6.216 c 0,0.994 -0.196,1.19 -1.218,1.26 l 0,0.266 7.532,0 0.672,-2.436 z" />
      <path
         inkscape:connector-curvature="0"
         id="path3629"
         style="font-size:14px;font-family:Times, serif;text-anchor:middle"
         d="m 81.570813,-15.36 0,-0.364 c -0.238,0.196 -0.406001,0.266 -0.616,0.266 -0.322001,0 -0.420001,-0.196 -0.420001,-0.812 l 0,-2.73 c 0,-0.714 -0.07,-1.106 -0.266,-1.428 -0.294,-0.532 -0.896,-0.812 -1.75,-0.812 -0.714,0 -1.386,0.196 -1.777999,0.518 -0.350001,0.294 -0.574,0.7 -0.574,1.05 0,0.322 0.265999,0.602 0.601999,0.602 0.336,0 0.630001,-0.28 0.630001,-0.588 0,-0.056 -0.014,-0.126 -0.028,-0.224 -0.028,-0.126 -0.042,-0.238 -0.042,-0.336 0,-0.378 0.448001,-0.686 1.008,-0.686 0.686,0 1.064,0.406 1.064,1.162 l 0,0.854 c -2.156,0.868 -2.394,0.98 -2.995999,1.512 -0.308001,0.28 -0.504001,0.756 -0.504001,1.218 0,0.882 0.602001,1.498 1.47,1.498 0.616,0 1.19,-0.294 2.044,-1.022 0.07,0.742 0.322,1.022 0.896,1.022 0.476,0 0.770001,-0.168 1.260001,-0.7 z m -2.170001,-1.162 c 0,0.434 -0.07,0.56 -0.364,0.742 -0.336,0.196 -0.727999,0.308 -1.021999,0.308 -0.490001,0 -0.882001,-0.476 -0.882001,-1.078 l 0,-0.056 c 0,-0.826 0.574,-1.33 2.268,-1.946 l 0,2.03 z" />
      <path
         inkscape:connector-curvature="0"
         id="path3631"
         style="font-size:14px;font-family:Times, serif;text-anchor:middle"
         d="m 86.461844,-16.452 c 0,-0.7 -0.322,-1.162 -1.176,-1.666 l -1.512,-0.896 c -0.392,-0.224 -0.602,-0.574 -0.602,-0.952 0,-0.574 0.434,-0.952 1.078,-0.952 0.798,0 1.218,0.462 1.54,1.722 l 0.21,0 -0.056,-1.904 -0.154,0 -0.028,0.028 c -0.126,0.098 -0.14,0.112 -0.196,0.112 -0.084,0 -0.224,-0.028 -0.378,-0.098 -0.294,-0.112 -0.616,-0.168 -0.952,-0.168 -1.148,0 -1.932,0.7 -1.932,1.722 0,0.784 0.448,1.33 1.638,2.016 l 0.812,0.462 c 0.49,0.28 0.728,0.616 0.728,1.05 0,0.616 -0.448,1.008 -1.162,1.008 -0.966,0 -1.456,-0.532 -1.778,-1.96 l -0.224,0 0,2.184 0.182,0 c 0.098,-0.14 0.154,-0.168 0.322,-0.168 0.154,0 0.308,0.028 0.644,0.112 0.392,0.084 0.742,0.14 1.036,0.14 1.064,0 1.96,-0.812 1.96,-1.792 z" />
      <path
         inkscape:connector-curvature="0"
         id="path3633"
         style="font-size:14px;font-family:Times, serif;text-anchor:middle"
         d="m 92.96725,-16.998 -0.224,-0.098 c -0.672,1.064 -1.274,1.47 -2.17,1.47 -0.77,0 -1.358,-0.364 -1.764,-1.12 -0.28,-0.546 -0.392,-1.036 -0.42,-1.932 l 4.312,0 c -0.112,-0.91 -0.252,-1.316 -0.602,-1.764 -0.42,-0.504 -1.064,-0.798 -1.792,-0.798 -1.736,0 -2.926,1.4 -2.926,3.444 0,1.932 1.008,3.136 2.618,3.136 1.344,0 2.38,-0.826 2.968,-2.338 z m -1.694,-2.128 -2.856,0 c 0.154,-1.106 0.63,-1.61 1.484,-1.61 0.854,0 1.19,0.392 1.372,1.61 z" />
      <path
         inkscape:connector-curvature="0"
         id="path3635"
         style="font-size:14px;font-family:Times, serif;text-anchor:middle"
         d="m 97.928281,-20.498 c 0,-0.462 -0.294,-0.742 -0.77,-0.742 -0.588,0 -0.994,0.322 -1.68,1.316 l 0,-1.288 -0.07,-0.028 c -0.742,0.308 -1.246,0.49 -2.072,0.756 l 0,0.224 c 0.196,-0.042 0.322,-0.056 0.49,-0.056 0.35,0 0.476,0.224 0.476,0.84 l 0,3.5 c 0,0.7 -0.098,0.798 -0.994,0.966 l 0,0.21 3.36,0 0,-0.21 c -0.952,-0.042 -1.19,-0.252 -1.19,-1.05 l 0,-3.15 c 0,-0.448 0.602,-1.148 0.98,-1.148 0.084,0 0.21,0.07 0.364,0.21 0.224,0.196 0.378,0.28 0.56,0.28 0.336,0 0.546,-0.238 0.546,-0.63 z" />
      <path
         inkscape:connector-curvature="0"
         id="path3637"
         style="font-size:14px;font-family:Times, serif;text-anchor:middle"
         d="m 106.21606,-17.32 c 0,-0.616 -0.252,-1.176 -0.686,-1.582 -0.42,-0.378 -0.798,-0.546 -1.708,-0.77 0.728,-0.182 1.022,-0.322 1.358,-0.616 0.35,-0.308 0.56,-0.826 0.56,-1.4 0,-1.568 -1.246,-2.38 -3.668,-2.38 l -3.919998,0 0,0.266 c 1.176001,0.07 1.344,0.224 1.344,1.26 l 0,6.216 c 0,1.036 -0.181999,1.218 -1.344,1.26 l 0,0.266 4.675998,0 c 1.092,0 2.086,-0.294 2.604,-0.77 0.504,-0.448 0.784,-1.078 0.784,-1.75 z m -1.61,0.014 c 0,0.756 -0.294,1.302 -0.854,1.624 -0.448,0.252 -1.022,0.364 -1.946,0.364 -0.686,0 -0.882,-0.126 -0.882,-0.574 l 0,-3.472 c 1.358,0 2.002,0.07 2.506,0.28 0.798,0.336 1.176,0.896 1.176,1.778 z m -0.294,-4.326 c 0,1.092 -0.742,1.708 -2.058,1.708 l -1.33,0 0,-3.206 c 0,-0.294 0.098,-0.42 0.308,-0.42 l 0.616,0 c 1.61,0 2.464,0.672 2.464,1.918 z" />
      <path
         inkscape:connector-curvature="0"
         id="path3639"
         style="font-size:14px;font-family:Times, serif;text-anchor:middle"
         d="m 113.45363,-15.36 0,-0.364 c -0.238,0.196 -0.40601,0.266 -0.616,0.266 -0.322,0 -0.42,-0.196 -0.42,-0.812 l 0,-2.73 c 0,-0.714 -0.07,-1.106 -0.26601,-1.428 -0.29399,-0.532 -0.896,-0.812 -1.75,-0.812 -0.714,0 -1.38599,0.196 -1.77799,0.518 -0.35001,0.294 -0.574,0.7 -0.574,1.05 0,0.322 0.26599,0.602 0.60199,0.602 0.336,0 0.63001,-0.28 0.63001,-0.588 0,-0.056 -0.014,-0.126 -0.028,-0.224 -0.028,-0.126 -0.042,-0.238 -0.042,-0.336 0,-0.378 0.44801,-0.686 1.008,-0.686 0.68601,0 1.06401,0.406 1.06401,1.162 l 0,0.854 c -2.15601,0.868 -2.39401,0.98 -2.996,1.512 -0.308,0.28 -0.504,0.756 -0.504,1.218 0,0.882 0.602,1.498 1.47,1.498 0.616,0 1.18999,-0.294 2.04399,-1.022 0.07,0.742 0.32201,1.022 0.896,1.022 0.476,0 0.77001,-0.168 1.26001,-0.7 z m -2.17,-1.162 c 0,0.434 -0.07,0.56 -0.36401,0.742 -0.336,0.196 -0.72799,0.308 -1.02199,0.308 -0.49001,0 -0.882,-0.476 -0.882,-1.078 l 0,-0.056 c 0,-0.826 0.57399,-1.33 2.268,-1.946 l 0,2.03 z" />
      <path
         inkscape:connector-curvature="0"
         id="path3641"
         style="font-size:14px;font-family:Times, serif;text-anchor:middle"
         d="m 117.37866,-15.724 -0.182,-0.154 c -0.308,0.364 -0.532,0.49 -0.84,0.49 -0.518,0 -0.728,-0.364 -0.728,-1.26 l 0,-4.004 1.414,0 0,-0.448 -1.414,0 0,-1.624 c 0,-0.14 -0.028,-0.182 -0.098,-0.182 -0.084,0.14 -0.182,0.266 -0.28,0.392 -0.518,0.77 -0.994,1.288 -1.358,1.498 -0.154,0.098 -0.238,0.182 -0.238,0.266 0,0.042 0.014,0.07 0.056,0.098 l 0.742,0 0,4.214 c 0,1.176 0.42,1.778 1.232,1.778 0.7,0 1.232,-0.336 1.694,-1.064 z" />
      <path
         inkscape:connector-curvature="0"
         id="path3643"
         style="font-size:14px;font-family:Times, serif;text-anchor:middle"
         d="m 121.26147,-15.724 -0.182,-0.154 c -0.308,0.364 -0.532,0.49 -0.84,0.49 -0.518,0 -0.728,-0.364 -0.728,-1.26 l 0,-4.004 1.414,0 0,-0.448 -1.414,0 0,-1.624 c 0,-0.14 -0.028,-0.182 -0.098,-0.182 -0.084,0.14 -0.182,0.266 -0.28,0.392 -0.518,0.77 -0.994,1.288 -1.358,1.498 -0.154,0.098 -0.238,0.182 -0.238,0.266 0,0.042 0.014,0.07 0.056,0.098 l 0.742,0 0,4.214 c 0,1.176 0.42,1.778 1.232,1.778 0.7,0 1.232,-0.336 1.694,-1.064 z" />
      <path
         inkscape:connector-curvature="0"
         id="path3645"
         style="font-size:14px;font-family:Times, serif;text-anchor:middle"
         d="m 127.17428,-16.998 -0.224,-0.098 c -0.672,1.064 -1.274,1.47 -2.17,1.47 -0.77,0 -1.358,-0.364 -1.764,-1.12 -0.28,-0.546 -0.392,-1.036 -0.42,-1.932 l 4.312,0 c -0.112,-0.91 -0.252,-1.316 -0.602,-1.764 -0.42,-0.504 -1.064,-0.798 -1.792,-0.798 -1.736,0 -2.926,1.4 -2.926,3.444 0,1.932 1.008,3.136 2.618,3.136 1.344,0 2.38,-0.826 2.968,-2.338 z m -1.694,-2.128 -2.856,0 c 0.154,-1.106 0.63,-1.61 1.484,-1.61 0.854,0 1.19,0.392 1.372,1.61 z" />
      <path
         inkscape:connector-curvature="0"
         id="path3647"
         style="font-size:14px;font-family:Times, serif;text-anchor:middle"
         d="m 132.13531,-20.498 c 0,-0.462 -0.294,-0.742 -0.77,-0.742 -0.588,0 -0.994,0.322 -1.68,1.316 l 0,-1.288 -0.07,-0.028 c -0.742,0.308 -1.246,0.49 -2.072,0.756 l 0,0.224 c 0.196,-0.042 0.322,-0.056 0.49,-0.056 0.35,0 0.476,0.224 0.476,0.84 l 0,3.5 c 0,0.7 -0.098,0.798 -0.994,0.966 l 0,0.21 3.36,0 0,-0.21 c -0.952,-0.042 -1.19,-0.252 -1.19,-1.05 l 0,-3.15 c 0,-0.448 0.602,-1.148 0.98,-1.148 0.084,0 0.21,0.07 0.364,0.21 0.224,0.196 0.378,0.28 0.56,0.28 0.336,0 0.546,-0.238 0.546,-0.63 z" />
      <path
         inkscape:connector-curvature="0"
         id="path3649"
         style="font-size:14px;font-family:Times, serif;text-anchor:middle"
         d="m 139.04453,-20.89 0,-0.21 -1.89,0 0,0.21 c 0.448,0 0.672,0.126 0.672,0.35 0,0.056 -0.014,0.14 -0.056,0.238 l -1.358,3.864 -1.61,-3.542 c -0.084,-0.196 -0.14,-0.378 -0.14,-0.532 0,-0.252 0.21,-0.35 0.812,-0.378 l 0,-0.21 -2.884,0 0,0.196 c 0.364,0.056 0.602,0.21 0.714,0.448 l 2.31,4.872 c 0.098,0.238 0.154,0.406 0.154,0.518 0,0.21 -0.322,1.092 -0.56,1.512 -0.196,0.364 -0.504,0.63 -0.7,0.63 -0.084,0 -0.21,-0.028 -0.35,-0.098 -0.266,-0.098 -0.504,-0.154 -0.742,-0.154 -0.322,0 -0.602,0.28 -0.602,0.616 0,0.462 0.448,0.812 1.036,0.812 0.938,0 1.61,-0.784 2.366,-2.8 l 2.156,-5.712 c 0.182,-0.448 0.336,-0.588 0.672,-0.63 z" />
      <path
         inkscape:connector-curvature="0"
         id="path3651"
         style="font-size:14px;font-family:Times, serif;text-anchor:middle"
         d="m 147.69653,-17.32 c 0,-0.616 -0.252,-1.176 -0.686,-1.582 -0.42,-0.378 -0.798,-0.546 -1.708,-0.77 0.728,-0.182 1.022,-0.322 1.358,-0.616 0.35,-0.308 0.56,-0.826 0.56,-1.4 0,-1.568 -1.246,-2.38 -3.668,-2.38 l -3.92,0 0,0.266 c 1.176,0.07 1.344,0.224 1.344,1.26 l 0,6.216 c 0,1.036 -0.182,1.218 -1.344,1.26 l 0,0.266 4.676,0 c 1.092,0 2.086,-0.294 2.604,-0.77 0.504,-0.448 0.784,-1.078 0.784,-1.75 z m -1.61,0.014 c 0,0.756 -0.294,1.302 -0.854,1.624 -0.448,0.252 -1.022,0.364 -1.946,0.364 -0.686,0 -0.882,-0.126 -0.882,-0.574 l 0,-3.472 c 1.358,0 2.002,0.07 2.506,0.28 0.798,0.336 1.176,0.896 1.176,1.778 z m -0.294,-4.326 c 0,1.092 -0.742,1.708 -2.058,1.708 l -1.33,0 0,-3.206 c 0,-0.294 0.098,-0.42 0.308,-0.42 l 0.616,0 c 1.61,0 2.464,0.672 2.464,1.918 z" />
      <path
         inkscape:connector-curvature="0"
         id="path3653"
         style="font-size:14px;font-family:Times, serif;text-anchor:middle"
         d="m 155.32609,-18.076 c 0,-1.834 -1.288,-3.164 -3.08,-3.164 -1.82,0 -3.094,1.344 -3.094,3.276 0,1.89 1.302,3.304 3.066,3.304 1.764,0 3.108,-1.484 3.108,-3.416 z m -1.26,0.49 c 0,1.582 -0.63,2.534 -1.68,2.534 -0.546,0 -1.064,-0.336 -1.358,-0.896 -0.392,-0.728 -0.616,-1.708 -0.616,-2.702 0,-1.33 0.658,-2.198 1.652,-2.198 1.176,0 2.002,1.344 2.002,3.262 z" />
      <path
         inkscape:connector-curvature="0"
         id="path3655"
         style="font-size:14px;font-family:Times, serif;text-anchor:middle"
         d="m 159.65209,-15.724 -0.182,-0.154 c -0.308,0.364 -0.532,0.49 -0.84,0.49 -0.518,0 -0.728,-0.364 -0.728,-1.26 l 0,-4.004 1.414,0 0,-0.448 -1.414,0 0,-1.624 c 0,-0.14 -0.028,-0.182 -0.098,-0.182 -0.084,0.14 -0.182,0.266 -0.28,0.392 -0.518,0.77 -0.994,1.288 -1.358,1.498 -0.154,0.098 -0.238,0.182 -0.238,0.266 0,0.042 0.014,0.07 0.056,0.098 l 0.742,0 0,4.214 c 0,1.176 0.42,1.778 1.232,1.778 0.7,0 1.232,-0.336 1.694,-1.064 z" />
      <path
         inkscape:connector-curvature="0"
         id="path3657"
         style="font-size:14px;font-family:Times, serif;text-anchor:middle"
         d="m 167.27291,-22.066 -0.042,-2.002 -7.434,0 0,0.266 c 1.036,0.084 1.218,0.28 1.218,1.26 l 0,6.062 c 0,1.162 -0.154,1.344 -1.218,1.414 l 0,0.266 3.92,0 0,-0.266 c -1.078,-0.056 -1.274,-0.252 -1.274,-1.26 l 0,-3.052 2.03,0 c 1.134,0 1.372,0.21 1.54,1.344 l 0.322,0 0,-3.248 -0.322,0 c -0.168,1.12 -0.42,1.33 -1.54,1.33 l -2.03,0 0,-3.108 c 0,-0.392 0.07,-0.476 0.448,-0.476 l 1.904,0 c 1.582,0 1.89,0.21 2.128,1.47 l 0.35,0 z" />
      <path
         inkscape:connector-curvature="0"
         id="path3659"
         style="font-size:14px;font-family:Times, serif;text-anchor:middle"
         d="m 170.74512,-14.8 0,-0.21 c -0.924,-0.07 -1.036,-0.21 -1.036,-1.218 l 0,-4.97 -0.056,-0.042 -2.17,0.77 0,0.21 0.112,-0.014 c 0.168,-0.028 0.35,-0.042 0.476,-0.042 0.336,0 0.462,0.224 0.462,0.84 l 0,3.248 c 0,1.008 -0.14,1.162 -1.106,1.218 l 0,0.21 3.318,0 z m -0.91,-8.26 c 0,-0.392 -0.308,-0.714 -0.714,-0.714 -0.392,0 -0.714,0.322 -0.714,0.714 0,0.406 0.322,0.714 0.714,0.714 0.406,0 0.714,-0.308 0.714,-0.714 z" />
      <path
         inkscape:connector-curvature="0"
         id="path3661"
         style="font-size:14px;font-family:Times, serif;text-anchor:middle"
         d="m 177.02194,-16.998 -0.224,-0.098 c -0.672,1.064 -1.274,1.47 -2.17,1.47 -0.77,0 -1.358,-0.364 -1.764,-1.12 -0.28,-0.546 -0.392,-1.036 -0.42,-1.932 l 4.312,0 c -0.112,-0.91 -0.252,-1.316 -0.602,-1.764 -0.42,-0.504 -1.064,-0.798 -1.792,-0.798 -1.736,0 -2.926,1.4 -2.926,3.444 0,1.932 1.008,3.136 2.618,3.136 1.344,0 2.38,-0.826 2.968,-2.338 z m -1.694,-2.128 -2.856,0 c 0.154,-1.106 0.63,-1.61 1.484,-1.61 0.854,0 1.19,0.392 1.372,1.61 z" />
      <path
         inkscape:connector-curvature="0"
         id="path3663"
         style="font-size:14px;font-family:Times, serif;text-anchor:middle"
         d="m 180.89097,-14.8 0,-0.21 c -0.896,-0.056 -1.05,-0.196 -1.05,-0.966 l 0,-8.358 -0.056,-0.028 c -0.728,0.238 -1.26,0.378 -2.226,0.616 l 0,0.224 0.084,0 c 0.154,-0.014 0.322,-0.028 0.434,-0.028 0.448,0 0.588,0.196 0.588,0.854 l 0,6.678 c 0,0.756 -0.196,0.938 -1.078,1.008 l 0,0.21 3.304,0 z" />
      <path
         inkscape:connector-curvature="0"
         id="path3665"
         style="font-size:14px;font-family:Times, serif;text-anchor:middle"
         d="m 188.04978,-15.388 0,-0.224 c -0.252,0.014 -0.28,0.014 -0.322,0.014 -0.504,0 -0.616,-0.154 -0.616,-0.798 l 0,-7.938 -0.07,-0.028 c -0.672,0.238 -1.162,0.378 -2.058,0.616 l 0,0.224 c 0.112,-0.014 0.196,-0.014 0.308,-0.014 0.518,0 0.644,0.14 0.644,0.714 l 0,2.184 c -0.532,-0.448 -0.91,-0.602 -1.47,-0.602 -1.61,0 -2.912,1.582 -2.912,3.57 0,1.792 1.05,3.01 2.59,3.01 0.784,0 1.316,-0.28 1.792,-0.938 l 0,0.896 0.056,0.042 2.058,-0.728 z m -2.114,-0.84 c 0,0.098 -0.098,0.266 -0.238,0.42 -0.252,0.28 -0.602,0.42 -1.008,0.42 -1.162,0 -1.932,-1.12 -1.932,-2.842 0,-1.582 0.686,-2.618 1.75,-2.618 0.742,0 1.428,0.658 1.428,1.4 l 0,3.22 z" />
    </g>
  </g>
  <g
     class="edge"
     id="edge6"
     transform="translate(0.3194458,185.19951)">
    <title
       id="title101">6-&gt;1</title>
    <path
       style="fill:none;stroke:#000000"
       inkscape:connector-curvature="0"
       id="path103"
       d="m 127.5,-36.6871 c 0,-8.0234 0,-17.7654 0,-26.7438" />
    <path
       inkscape:connector-curvature="0"
       id="polygon105"
       d="m 124,-63.4711 3.5,-10.0001 3.5,10 -7,1e-4 z"
       style="fill:none;stroke:#000000" />
  </g>
  <g
     class="node"
     id="node9"
     transform="translate(0.3194458,185.19951)">
    <title
       id="title108">8</title>
    <path
       inkscape:connector-curvature="0"
       id="polygon110"
       d="m 277.5,-73.5 0,-36 92,0 0,36 -92,0 z"
       style="fill:none;stroke:#000000" />
    <g
       id="text112"
       style="font-size:14px;font-family:Times, serif;text-anchor:middle">
      <path
         inkscape:connector-curvature="0"
         id="path3670"
         style="font-size:14px;font-family:Times, serif;text-anchor:middle"
         d="m 293.3977,-94.688003 -0.084,-2.38 -7.896,0 -0.084,2.38 0.336,0 c 0.336,-1.54 0.658,-1.792 2.226,-1.792 l 0.756,0 0,7 c 0,1.19 -0.154,1.344 -1.316,1.414 l 0,0.266 4.088,0 0,-0.266 c -1.148,-0.056 -1.344,-0.238 -1.344,-1.26 l 0,-7.154 0.756,0 c 1.596,0 1.904,0.252 2.226,1.792 l 0.336,0 z" />
      <path
         inkscape:connector-curvature="0"
         id="path3672"
         style="font-size:14px;font-family:Times, serif;text-anchor:middle"
         d="m 297.63336,-93.498003 c 0,-0.462 -0.294,-0.742 -0.77,-0.742 -0.588,0 -0.994,0.322 -1.68,1.316 l 0,-1.288 -0.07,-0.028 c -0.742,0.308 -1.246,0.49 -2.072,0.756 l 0,0.224 c 0.196,-0.042 0.322,-0.056 0.49,-0.056 0.35,0 0.476,0.224 0.476,0.84 l 0,3.5 c 0,0.7 -0.098,0.798 -0.994,0.966 l 0,0.21 3.36,0 0,-0.21 c -0.952,-0.042 -1.19,-0.252 -1.19,-1.05 l 0,-3.15 c 0,-0.448 0.602,-1.148 0.98,-1.148 0.084,0 0.21,0.07 0.364,0.21 0.224,0.196 0.378,0.28 0.56,0.28 0.336,0 0.546,-0.238 0.546,-0.63 z" />
      <path
         inkscape:connector-curvature="0"
         id="path3674"
         style="font-size:14px;font-family:Times, serif;text-anchor:middle"
         d="m 303.55514,-89.998003 -0.224,-0.098 c -0.672,1.064 -1.274,1.47 -2.17,1.47 -0.77,0 -1.358,-0.364 -1.764,-1.12 -0.28,-0.546 -0.392,-1.036 -0.42,-1.932 l 4.312,0 c -0.112,-0.91 -0.252,-1.316 -0.602,-1.764 -0.42,-0.504 -1.064,-0.798 -1.792,-0.798 -1.736,0 -2.926,1.4 -2.926,3.444 0,1.932 1.008,3.136 2.618,3.136 1.344,0 2.38,-0.826 2.968,-2.338 z m -1.694,-2.128 -2.856,0 c 0.154,-1.106 0.63,-1.61 1.484,-1.61 0.854,0 1.19,0.392 1.372,1.61 z" />
      <path
         inkscape:connector-curvature="0"
         id="path3676"
         style="font-size:14px;font-family:Times, serif;text-anchor:middle"
         d="m 310.01417,-88.360003 0,-0.364 c -0.238,0.196 -0.406,0.266 -0.616,0.266 -0.322,0 -0.42,-0.196 -0.42,-0.812 l 0,-2.73 c 0,-0.714 -0.07,-1.106 -0.266,-1.428 -0.294,-0.532 -0.896,-0.812 -1.75,-0.812 -0.714,0 -1.386,0.196 -1.778,0.518 -0.35,0.294 -0.574,0.7 -0.574,1.05 0,0.322 0.266,0.602 0.602,0.602 0.336,0 0.63,-0.28 0.63,-0.588 0,-0.056 -0.014,-0.126 -0.028,-0.224 -0.028,-0.126 -0.042,-0.238 -0.042,-0.336 0,-0.378 0.448,-0.686 1.008,-0.686 0.686,0 1.064,0.406 1.064,1.162 l 0,0.854 c -2.156,0.868 -2.394,0.98 -2.996,1.512 -0.308,0.28 -0.504,0.756 -0.504,1.218 0,0.882 0.602,1.498 1.47,1.498 0.616,0 1.19,-0.294 2.044,-1.022 0.07,0.742 0.322,1.022 0.896,1.022 0.476,0 0.77,-0.168 1.26,-0.7 z m -2.17,-1.162 c 0,0.434 -0.07,0.56 -0.364,0.742 -0.336,0.196 -0.728,0.308 -1.022,0.308 -0.49,0 -0.882,-0.476 -0.882,-1.078 l 0,-0.056 c 0,-0.826 0.574,-1.33 2.268,-1.946 l 0,2.03 z" />
      <path
         inkscape:connector-curvature="0"
         id="path3678"
         style="font-size:14px;font-family:Times, serif;text-anchor:middle"
         d="m 314.9052,-89.452003 c 0,-0.7 -0.322,-1.162 -1.176,-1.666 l -1.512,-0.896 c -0.392,-0.224 -0.602,-0.574 -0.602,-0.952 0,-0.574 0.434,-0.952 1.078,-0.952 0.798,0 1.218,0.462 1.54,1.722 l 0.21,0 -0.056,-1.904 -0.154,0 -0.028,0.028 c -0.126,0.098 -0.14,0.112 -0.196,0.112 -0.084,0 -0.224,-0.028 -0.378,-0.098 -0.294,-0.112 -0.616,-0.168 -0.952,-0.168 -1.148,0 -1.932,0.7 -1.932,1.722 0,0.784 0.448,1.33 1.638,2.016 l 0.812,0.462 c 0.49,0.28 0.728,0.616 0.728,1.05 0,0.616 -0.448,1.008 -1.162,1.008 -0.966,0 -1.456,-0.532 -1.778,-1.96 l -0.224,0 0,2.184 0.182,0 c 0.098,-0.14 0.154,-0.168 0.322,-0.168 0.154,0 0.308,0.028 0.644,0.112 0.392,0.084 0.742,0.14 1.036,0.14 1.064,0 1.96,-0.812 1.96,-1.792 z" />
      <path
         inkscape:connector-curvature="0"
         id="path3680"
         style="font-size:14px;font-family:Times, serif;text-anchor:middle"
         d="m 322.18061,-88.304003 0,-0.196 -0.07,0 c -0.644,0 -0.798,-0.154 -0.798,-0.798 l 0,-4.802 -2.212,0 0,0.238 c 0.868,0.042 1.036,0.182 1.036,0.882 l 0,3.29 c 0,0.378 -0.07,0.588 -0.238,0.714 -0.392,0.336 -0.826,0.504 -1.26,0.504 -0.546,0 -0.994,-0.476 -0.994,-1.064 l 0,-4.564 -2.044,0 0,0.196 c 0.672,0.042 0.868,0.252 0.868,0.896 l 0,3.528 c 0,1.106 0.672,1.82 1.694,1.82 0.518,0 1.064,-0.224 1.442,-0.602 l 0.602,-0.602 0,1.162 0.056,0.028 c 0.7,-0.28 1.204,-0.434 1.918,-0.63 z" />
      <path
         inkscape:connector-curvature="0"
         id="path3682"
         style="font-size:14px;font-family:Times, serif;text-anchor:middle"
         d="m 327.16461,-93.498003 c 0,-0.462 -0.294,-0.742 -0.77,-0.742 -0.588,0 -0.994,0.322 -1.68,1.316 l 0,-1.288 -0.07,-0.028 c -0.742,0.308 -1.246,0.49 -2.072,0.756 l 0,0.224 c 0.196,-0.042 0.322,-0.056 0.49,-0.056 0.35,0 0.476,0.224 0.476,0.84 l 0,3.5 c 0,0.7 -0.098,0.798 -0.994,0.966 l 0,0.21 3.36,0 0,-0.21 c -0.952,-0.042 -1.19,-0.252 -1.19,-1.05 l 0,-3.15 c 0,-0.448 0.602,-1.148 0.98,-1.148 0.084,0 0.21,0.07 0.364,0.21 0.224,0.196 0.378,0.28 0.56,0.28 0.336,0 0.546,-0.238 0.546,-0.63 z" />
      <path
         inkscape:connector-curvature="0"
         id="path3684"
         style="font-size:14px;font-family:Times, serif;text-anchor:middle"
         d="m 333.08639,-89.998003 -0.224,-0.098 c -0.672,1.064 -1.274,1.47 -2.17,1.47 -0.77,0 -1.358,-0.364 -1.764,-1.12 -0.28,-0.546 -0.392,-1.036 -0.42,-1.932 l 4.312,0 c -0.112,-0.91 -0.252,-1.316 -0.602,-1.764 -0.42,-0.504 -1.064,-0.798 -1.792,-0.798 -1.736,0 -2.926,1.4 -2.926,3.444 0,1.932 1.008,3.136 2.618,3.136 1.344,0 2.38,-0.826 2.968,-2.338 z m -1.694,-2.128 -2.856,0 c 0.154,-1.106 0.63,-1.61 1.484,-1.61 0.854,0 1.19,0.392 1.372,1.61 z" />
      <path
         inkscape:connector-curvature="0"
         id="path3686"
         style="font-size:14px;font-family:Times, serif;text-anchor:middle"
         d="m 341.00142,-95.066003 -0.042,-2.002 -7.434,0 0,0.266 c 1.036,0.084 1.218,0.28 1.218,1.26 l 0,6.062 c 0,1.162 -0.154,1.344 -1.218,1.414 l 0,0.266 3.92,0 0,-0.266 c -1.078,-0.056 -1.274,-0.252 -1.274,-1.26 l 0,-3.052 2.03,0 c 1.134,0 1.372,0.21 1.54,1.344 l 0.322,0 0,-3.248 -0.322,0 c -0.168,1.12 -0.42,1.33 -1.54,1.33 l -2.03,0 0,-3.108 c 0,-0.392 0.07,-0.476 0.448,-0.476 l 1.904,0 c 1.582,0 1.89,0.21 2.128,1.47 l 0.35,0 z" />
      <path
         inkscape:connector-curvature="0"
         id="path3688"
         style="font-size:14px;font-family:Times, serif;text-anchor:middle"
         d="m 344.47364,-87.800003 0,-0.21 c -0.924,-0.07 -1.036,-0.21 -1.036,-1.218 l 0,-4.97 -0.056,-0.042 -2.17,0.77 0,0.21 0.112,-0.014 c 0.168,-0.028 0.35,-0.042 0.476,-0.042 0.336,0 0.462,0.224 0.462,0.84 l 0,3.248 c 0,1.008 -0.14,1.162 -1.106,1.218 l 0,0.21 3.318,0 z m -0.91,-8.26 c 0,-0.392 -0.308,-0.714 -0.714,-0.714 -0.392,0 -0.714,0.322 -0.714,0.714 0,0.406 0.322,0.714 0.714,0.714 0.406,0 0.714,-0.308 0.714,-0.714 z" />
      <path
         inkscape:connector-curvature="0"
         id="path3690"
         style="font-size:14px;font-family:Times, serif;text-anchor:middle"
         d="m 350.75045,-89.998003 -0.224,-0.098 c -0.672,1.064 -1.274,1.47 -2.17,1.47 -0.77,0 -1.358,-0.364 -1.764,-1.12 -0.28,-0.546 -0.392,-1.036 -0.42,-1.932 l 4.312,0 c -0.112,-0.91 -0.252,-1.316 -0.602,-1.764 -0.42,-0.504 -1.064,-0.798 -1.792,-0.798 -1.736,0 -2.926,1.4 -2.926,3.444 0,1.932 1.008,3.136 2.618,3.136 1.344,0 2.38,-0.826 2.968,-2.338 z m -1.694,-2.128 -2.856,0 c 0.154,-1.106 0.63,-1.61 1.484,-1.61 0.854,0 1.19,0.392 1.372,1.61 z" />
      <path
         inkscape:connector-curvature="0"
         id="path3692"
         style="font-size:14px;font-family:Times, serif;text-anchor:middle"
         d="m 354.61948,-87.800003 0,-0.21 c -0.896,-0.056 -1.05,-0.196 -1.05,-0.966 l 0,-8.358 -0.056,-0.028 c -0.728,0.238 -1.26,0.378 -2.226,0.616 l 0,0.224 0.084,0 c 0.154,-0.014 0.322,-0.028 0.434,-0.028 0.448,0 0.588,0.196 0.588,0.854 l 0,6.678 c 0,0.756 -0.196,0.938 -1.078,1.008 l 0,0.21 3.304,0 z" />
      <path
         inkscape:connector-curvature="0"
         id="path3694"
         style="font-size:14px;font-family:Times, serif;text-anchor:middle"
         d="m 361.7783,-88.388003 0,-0.224 c -0.252,0.014 -0.28,0.014 -0.322,0.014 -0.504,0 -0.616,-0.154 -0.616,-0.798 l 0,-7.938 -0.07,-0.028 c -0.672,0.238 -1.162,0.378 -2.058,0.616 l 0,0.224 c 0.112,-0.014 0.196,-0.014 0.308,-0.014 0.518,0 0.644,0.14 0.644,0.714 l 0,2.184 c -0.532,-0.448 -0.91,-0.602 -1.47,-0.602 -1.61,0 -2.912,1.582 -2.912,3.57 0,1.792 1.05,3.01 2.59,3.01 0.784,0 1.316,-0.28 1.792,-0.938 l 0,0.896 0.056,0.042 2.058,-0.728 z m -2.114,-0.84 c 0,0.098 -0.098,0.266 -0.238,0.42 -0.252,0.28 -0.602,0.42 -1.008,0.42 -1.162,0 -1.932,-1.12 -1.932,-2.842 0,-1.582 0.686,-2.618 1.75,-2.618 0.742,0 1.428,0.658 1.428,1.4 l 0,3.22 z" />
    </g>
  </g>
  <g
     class="edge"
     id="edge7"
     transform="translate(0.3194458,185.19951)">
    <title
       id="title115">8-&gt;5</title>
    <path
       style="fill:none;stroke:#000000"
       inkscape:connector-curvature="0"
       id="path117"
       d="m 287.332,-109.506 c -23.724,-11.155 -54.636,-25.69 -78.411,-36.869" />
    <path
       inkscape:connector-curvature="0"
       id="polygon119"
       d="m 207.424,-143.211 -7.56,-7.422 10.539,1.087 -2.979,6.335 z"
       style="fill:none;stroke:#000000" />
  </g>
</svg>
